<?xml version="1.0" encoding="UTF-8"?>
<svg id="Layer_2" data-name="Layer 2" xmlns="http://www.w3.org/2000/svg" viewBox="0 0 156.57 160.62">
  <defs>
    <style>
      .cls-1 {
        fill: #533f5b;
      }
    </style>
  </defs>
  <g id="Layer_1-2" data-name="Layer 1">
    <g>
      <path class="cls-1" d="M124.56,89.03c0,5.34-1.67,10.15-4.99,14.42-3.31,4.28-7.77,7.66-13.36,10.16-5.59,2.5-11.8,3.75-18.62,3.75-7.89,0-16.03-1.58-23.11-5.29-3.55-1.86-6.81-4.26-9.57-7.17-2.79-2.93-4.7-6.81-7.75-9.6-3.48-3.18-8.09-4.07-12.68-4.07-6.18,0-9.28,1.81-9.28,5.44,0,2.41,1.39,4.14,4.16,5.18,2.77,1.04,6.39,1.9,10.84,2.59,3.46.52,7.08,1.27,10.84,2.27,3.77.99,7.32,2.5,10.64,4.53,3.32,2.02,6.03,4.72,8.12,8.08,2.09,3.37,3.14,7.67,3.14,12.94s-1.66,10.16-4.98,14.43c-3.31,4.27-7.77,7.66-13.36,10.16-5.59,2.5-11.8,3.75-18.62,3.75-8.72,0-16.34-1.69-22.84-5.05-5-2.59-9.02-6.1-12.06-10.54-1.46-2.13-.71-5.05,1.62-6.16l13.68-6.48c1.69-.8,3.71-.38,4.92,1.04,2.95,3.46,7.84,5.19,14.68,5.19,3.37,0,6.16-.5,8.39-1.48,2.23-.99,3.34-2.53,3.34-4.61,0-2.59-1.25-4.26-3.75-5.04-2.5-.78-5.83-1.47-10.02-2.07-3.45-.52-7.13-1.27-11.03-2.26-3.91-1-7.62-2.51-11.12-4.53-3.5-2.03-6.34-4.75-8.53-8.16-2.18-3.4-3.27-7.7-3.27-12.88s1.55-10.15,4.63-14.42c3.09-4.27,7.32-7.65,12.68-10.16,5.37-2.49,11.47-3.75,18.29-3.75,8.08,0,15.33,1.68,21.74,5.05,1.95,1.02,3.8,2.22,5.52,3.6,1.67,1.35,3.21,2.87,4.57,4.53.82,1,1.56,2.05,2.25,3.14.64,1.01,1.15,2.11,1.91,3.04.82,1.01,1.69,2.05,2.67,2.89,1.29,1.11,2.8,1.93,4.39,2.51,1.87.68,3.85,1.05,5.83,1.22,1.04.09,2.09.13,3.13.13,3.37,0,6.16-.5,8.39-1.49s3.34-2.53,3.34-4.61c0-2.58-1.25-4.26-3.75-5.03-2.49-.78-5.83-1.47-10.02-2.08-3.45-.52-7.13-1.27-11.03-2.26-3.91-.99-7.62-2.51-11.12-4.53-3.5-2.02-6.34-4.75-8.53-8.16-2.18-3.41-3.26-7.7-3.26-12.88s1.54-10.15,4.63-14.42c3.1-4.27,7.32-7.66,12.69-10.16,5.36-2.5,11.46-3.75,18.28-3.75,8.08,0,15.33,1.69,21.74,5.05,4.98,2.62,8.97,6.17,11.95,10.67,1.38,2.09.54,4.92-1.72,6l-13.93,6.61c-1.66.79-3.61.36-4.88-.98-1.08-1.14-2.4-2.17-3.96-3.07-2.59-1.51-6.03-2.27-10.3-2.27-6.18,0-9.27,1.81-9.27,5.44,0,2.41,1.38,4.14,4.15,5.18,2.77,1.03,6.39,1.9,10.85,2.58,3.45.52,7.07,1.28,10.84,2.27,3.77.99,7.32,2.5,10.63,4.53,3.32,2.02,6.03,4.71,8.13,8.08,2.09,3.37,3.14,7.67,3.14,12.94Z"/>
      <path class="cls-1" d="M68.83,16.3c-1.1.36-2.07.47-2.92.33-.85-.14-1.58-.49-2.18-1.03-.59-.55-1.04-1.24-1.35-2.08l-.97-2.63-1.72.57-1.07-2.88,1.72-.57-.88-2.39,3.64-1.2.88,2.39,3.32-1.1,1.07,2.88-3.32,1.1.92,2.51c.17.47.44.78.81.93.37.16.79.16,1.26.01.26-.09.55-.22.86-.39.32-.18.58-.37.78-.58l1.12,3.05c-.21.2-.51.41-.89.62-.37.2-.73.37-1.08.48Z"/>
      <path class="cls-1" d="M74.46,14.61l-3.8.62-2.66-14.61,3.8-.62.9,4.91c.33-.25.69-.47,1.09-.64.4-.18.84-.31,1.33-.38,1.66-.28,2.98-.03,3.97.73.99.76,1.63,1.96,1.92,3.57l.95,5.18-3.79.61-.88-4.79c-.1-.56-.35-1.03-.73-1.4-.38-.37-.86-.51-1.43-.42-.61.1-1.05.37-1.31.82-.26.45-.33.99-.21,1.61l.88,4.81Z"/>
      <path class="cls-1" d="M87.26,13.81c-1.14-.02-2.16-.26-3.07-.72-.9-.46-1.61-1.11-2.12-1.93-.51-.82-.75-1.79-.73-2.91.01-.97.27-1.87.76-2.67.49-.81,1.16-1.45,2.02-1.92.87-.48,1.87-.71,3-.7,1.17.02,2.16.28,2.96.78.81.49,1.41,1.14,1.82,1.94.41.8.61,1.65.59,2.55v.91s-7.46-.09-7.46-.09c.12.5.37.9.76,1.2.38.3.88.46,1.47.46.51,0,.97-.12,1.36-.35.39-.24.69-.56.88-.96l2.94,1.44c-.47.95-1.15,1.69-2.04,2.21-.89.52-1.94.77-3.14.75ZM85.23,7.16l3.45.04c-.09-.28-.27-.54-.56-.76-.28-.22-.65-.34-1.1-.35-.46,0-.84.1-1.15.3-.31.21-.52.47-.64.76Z"/>
      <path class="cls-1" d="M97.4,14.88c-1.34-.25-2.46-.72-3.36-1.43-.89-.7-1.48-1.6-1.75-2.69l3.54-.94c.23.88.99,1.44,2.27,1.67.51.1.95.1,1.33.01.38-.1.6-.3.67-.62.08-.4-.07-.69-.43-.89-.36-.19-.85-.39-1.47-.6-.52-.18-1.07-.4-1.63-.66-.57-.26-1.09-.6-1.56-1.01-.47-.42-.83-.92-1.07-1.51-.23-.59-.26-1.28-.09-2.08.17-.82.56-1.52,1.17-2.09.62-.57,1.37-.97,2.27-1.2.91-.23,1.89-.25,2.95-.06,1.24.22,2.3.69,3.17,1.39.88.71,1.46,1.6,1.74,2.69l-3.56.93c-.13-.37-.37-.7-.72-1.01-.35-.31-.85-.53-1.5-.65-.96-.18-1.49.01-1.6.57-.08.38.08.68.47.92.39.23.93.47,1.6.71.51.19,1.04.41,1.59.66.55.26,1.05.59,1.49,1,.45.4.78.9.99,1.48.21.58.24,1.27.07,2.08-.17.83-.57,1.51-1.22,2.07-.64.56-1.43.96-2.38,1.18-.94.23-1.94.25-2.98.06Z"/>
      <path class="cls-1" d="M107.63,17.69c-1.04-.39-1.88-.97-2.51-1.73-.63-.76-1.04-1.61-1.21-2.55-.17-.94-.06-1.87.32-2.79.38-.91.97-1.66,1.76-2.24.81-.58,1.71-.94,2.72-1.08,1.01-.15,2.04-.03,3.08.36,1.03.39,1.87.97,2.51,1.73.64.76,1.04,1.6,1.2,2.54.17.94.06,1.86-.32,2.78s-.97,1.66-1.76,2.25c-.79.58-1.69.95-2.71,1.09-1.02.15-2.05.03-3.08-.36ZM108.95,14.5c.57.22,1.1.21,1.6-.01.5-.23.85-.6,1.05-1.1.2-.5.21-.99.01-1.47-.2-.49-.58-.84-1.15-1.06-.58-.22-1.11-.21-1.61.02-.49.22-.84.59-1.04,1.09-.21.5-.21,1-.02,1.48.2.48.58.83,1.16,1.05Z"/>
      <path class="cls-1" d="M117.04,21.81l-3.33-1.84,3.78-6.14-1.57-.88,1.62-2.64,1.57.88.02-.04c.48-.79,1.07-1.4,1.78-1.85.71-.46,1.51-.69,2.39-.71.88-.01,1.83.26,2.83.81.32.18.62.39.9.62.28.22.51.45.69.67l-1.75,2.84c-.15-.23-.34-.45-.57-.65-.22-.21-.45-.38-.69-.51-.43-.24-.84-.31-1.23-.21-.4.09-.72.35-.97.76l-.07.11,2.65,1.47-1.62,2.64-2.65-1.47-3.78,6.14Z"/>
      <path class="cls-1" d="M123.65,26.69c-.92-.67-1.55-1.39-1.88-2.15-.34-.75-.43-1.51-.27-2.28.17-.77.53-1.51,1.1-2.23l1.8-2.19-1.44-1.06,1.97-2.42,1.44,1.06,1.62-2,3.04,2.24-1.62,2,2.77,2.03-1.97,2.42-2.77-2.03-1.72,2.1c-.32.38-.44.76-.38,1.14.06.38.29.72.69,1.01.21.16.49.31.82.47s.64.26.92.3l-2.07,2.55c-.3-.05-.65-.17-1.03-.36-.39-.19-.73-.39-1.02-.61Z"/>
      <path class="cls-1" d="M127.16,29.63c-.3-.28-.51-.61-.62-.99-.1-.38-.11-.75-.01-1.14.1-.38.3-.71.58-.99.3-.29.65-.49,1.04-.58.39-.1.79-.1,1.18,0,.4.09.75.28,1.05.55.31.29.51.61.62.98.1.37.11.75.01,1.12-.09.37-.29.71-.59,1-.28.28-.63.47-1.03.57-.4.1-.79.11-1.18.02-.4-.08-.75-.27-1.05-.55Z"/>
      <path class="cls-1" d="M132.58,35.55c-.84-1.03-1.35-2.09-1.53-3.18-.18-1.09,0-2.13.56-3.12l3.3,1.52c-.44.8-.26,1.69.54,2.67.32.4.65.69.99.85.35.16.65.15.92-.04.33-.25.43-.56.3-.92-.13-.37-.35-.83-.67-1.38-.27-.46-.53-.97-.77-1.53-.24-.55-.39-1.14-.46-1.74-.07-.61.02-1.2.26-1.79s.69-1.12,1.36-1.62c.7-.51,1.48-.78,2.33-.82.86-.04,1.71.13,2.55.53.84.39,1.59.99,2.25,1.79.76.95,1.23,1.97,1.41,3.05.18,1.08,0,2.11-.56,3.09l-3.33-1.53c.16-.35.21-.74.17-1.19-.05-.46-.27-.94-.67-1.44-.59-.73-1.12-.93-1.6-.58-.33.23-.42.56-.3.99.13.42.37.93.7,1.54.27.45.52.94.75,1.48.23.54.37,1.1.43,1.69.05.59-.04,1.17-.28,1.74-.24.57-.7,1.1-1.39,1.61-.7.52-1.5.78-2.38.8-.88.01-1.75-.19-2.61-.61-.86-.42-1.62-1.03-2.27-1.84Z"/>
      <path class="cls-1" d="M133.45,44.68l-1.74-3.27,9.19-4.43c.98-.47,1.96-.67,2.94-.61.99.07,1.9.37,2.74.91.83.54,1.51,1.29,2.02,2.25.5.94.73,1.9.67,2.88-.06.97-.35,1.86-.88,2.66-.52.8-1.24,1.42-2.17,1.87-1.03.49-2.03.72-3.01.7-.97-.03-1.86-.3-2.66-.82-.8-.51-1.46-1.25-1.98-2.23-.18-.33-.31-.68-.39-1.06-.08-.38-.11-.74-.09-1.08l-4.64,2.23ZM141.7,42.86c.28.52.68.85,1.21.99.54.14,1.05.09,1.55-.15.5-.24.85-.6,1.03-1.09.19-.49.15-.99-.13-1.52-.28-.51-.68-.84-1.21-.98-.52-.14-1.04-.1-1.54.15-.5.24-.85.6-1.04,1.09-.19.49-.15.99.13,1.51Z"/>
      <path class="cls-1" d="M142.18,53.13c-.29-.95-.3-1.85-.04-2.71.28-.85.76-1.6,1.47-2.23.71-.63,1.57-1.08,2.57-1.36.99-.27,1.97-.28,2.94-.03.97.25,1.82.71,2.56,1.37.74.67,1.27,1.52,1.59,2.53.31,1.04.36,2.03.14,2.97-.22.94-.67,1.74-1.35,2.43-.68.69-1.55,1.17-2.59,1.46l-5.16,1.43-1.01-3.3.76-.21c-.44-.22-.81-.52-1.14-.91-.32-.38-.56-.86-.73-1.43ZM145.82,52.75c.17.56.5.96.99,1.19.5.23,1.01.27,1.55.12.54-.15.96-.45,1.24-.9.29-.44.35-.94.18-1.51-.17-.56-.51-.96-1.01-1.19-.49-.22-1.01-.26-1.55-.11-.54.15-.95.44-1.24.89-.28.44-.34.94-.17,1.51Z"/>
      <path class="cls-1" d="M144.49,63.99c-.11-.79-.06-1.53.17-2.24.23-.71.57-1.33,1.03-1.89.46-.56,1.02-1.01,1.68-1.36.65-.35,1.36-.57,2.13-.64.76-.08,1.51-.02,2.23.19.72.22,1.36.55,1.93,1,.57.45,1.04.99,1.41,1.64.37.64.6,1.36.69,2.15.09,1.01-.07,1.98-.47,2.9-.4.92-1.13,1.66-2.18,2.23l-2.02-2.83c.35-.2.62-.47.82-.8.2-.33.29-.71.25-1.12-.07-.58-.32-1.03-.75-1.35-.43-.31-.92-.43-1.49-.37-.57.06-1.04.28-1.4.66-.36.39-.5.88-.43,1.46.04.42.2.77.49,1.06.28.28.62.49,1.01.62l-1.37,3.17c-1.15-.34-2.02-.92-2.62-1.74-.6-.82-.97-1.73-1.09-2.73Z"/>
      <path class="cls-1" d="M144.62,73.25c.08-1.08.38-2.03.91-2.87.54-.83,1.25-1.46,2.14-1.9.89-.44,1.92-.63,3.1-.56,1.02.07,1.95.35,2.77.85.82.5,1.46,1.17,1.92,2.01.46.85.65,1.8.58,2.88-.07,1.11-.39,2.03-.96,2.76-.56.73-1.27,1.28-2.13,1.63-.86.35-1.77.5-2.72.44l-.96-.06.47-7.06c-.54.09-.98.31-1.31.66-.33.35-.52.81-.54,1.37-.03.49.07.92.3,1.3.23.39.55.68.96.87l-1.66,2.72c-.97-.49-1.71-1.18-2.21-2.05-.5-.87-.72-1.87-.65-3.01ZM151.72,71.66l-.22,3.27c.31-.07.59-.23.84-.48.25-.26.39-.6.41-1.03.03-.44-.06-.81-.26-1.11-.21-.3-.46-.51-.77-.64Z"/>
      <path class="cls-1" d="M146.64,106.31c-1.79,0-3.44-.42-4.97-1.26-1.53-.85-2.74-1.99-3.64-3.45-.89-1.45-1.33-3.03-1.33-4.72s.44-3.33,1.33-4.75c.89-1.42,2.1-2.56,3.64-3.41,1.53-.85,3.19-1.27,4.97-1.27s3.51.42,5.01,1.27c1.5.85,2.69,1.98,3.59,3.41.89,1.42,1.34,3.01,1.34,4.75s-.45,3.27-1.34,4.72c-.89,1.46-2.09,2.6-3.59,3.45-1.5.84-3.17,1.26-5.01,1.26Z"/>
    </g>
  </g>
</svg>