<?xml version="1.0" encoding="UTF-8"?>
<svg id="Layer_2" data-name="Layer 2" xmlns="http://www.w3.org/2000/svg" viewBox="0 0 231.57 34.59">
  <defs>
    <style>
      .cls-1 {
        fill: #533f5b;
      }
    </style>
  </defs>
  <g id="Layer_1-2" data-name="Layer 1">
    <g>
      <path class="cls-1" d="M11.52,26.98c-1.92,0-3.51-.35-4.77-1.05-1.26-.7-2.19-1.67-2.81-2.9-.61-1.23-.92-2.63-.92-4.2v-4.87H0v-5.34h3.02v-4.44h6.4v4.44h5.84v5.34h-5.84v4.66c0,.85.24,1.52.73,1.98.49.46,1.14.69,1.97.69.45,0,.98-.06,1.59-.18.6-.12,1.12-.3,1.55-.54v5.66c-.45.23-1.04.42-1.75.55-.71.13-1.37.2-1.99.2Z"/>
      <path class="cls-1" d="M23.16,26.41h-6.4V.43h6.4v8.72c.62-.33,1.28-.6,1.99-.79.71-.19,1.47-.28,2.28-.28,2.8,0,4.89.8,6.28,2.41,1.38,1.6,2.08,3.84,2.08,6.71v9.21l-6.4-.03v-8.5c0-1-.26-1.88-.77-2.64-.51-.76-1.25-1.14-2.22-1.14-1.02,0-1.82.35-2.39,1.05s-.85,1.61-.85,2.73v8.54Z"/>
      <path class="cls-1" d="M46.54,26.91c-1.9,0-3.6-.4-5.11-1.19-1.5-.79-2.69-1.91-3.56-3.35-.86-1.44-1.29-3.13-1.29-5.08,0-1.71.39-3.27,1.18-4.7.79-1.42,1.9-2.56,3.33-3.41,1.43-.85,3.08-1.28,4.96-1.28s3.58.43,4.94,1.28c1.36.85,2.39,1.98,3.09,3.37.7,1.39,1.05,2.87,1.05,4.45v1.61h-12.39c.21.88.64,1.57,1.29,2.08.66.51,1.47.77,2.45.77.85,0,1.6-.21,2.25-.63.66-.43,1.14-.99,1.44-1.67l4.91,2.45c-.76,1.66-1.88,2.97-3.35,3.91-1.47.93-3.21,1.4-5.2,1.4ZM43.01,15.3h5.73c-.15-.5-.46-.94-.93-1.32-.48-.39-1.09-.59-1.85-.59s-1.4.19-1.9.57c-.51.38-.86.83-1.05,1.35Z"/>
      <path class="cls-1" d="M65.53,26.98c-2.28,0-4.27-.47-5.96-1.39-1.69-.92-2.95-2.28-3.79-4.06l5.48-2.74c.66,1.42,2.08,2.13,4.27,2.13.88,0,1.61-.13,2.19-.4.58-.28.88-.7.88-1.27,0-.71-.33-1.17-.98-1.38-.65-.22-1.52-.41-2.6-.58-.91-.14-1.87-.34-2.89-.61-1.02-.28-1.99-.69-2.9-1.25-.91-.56-1.65-1.31-2.22-2.24-.57-.94-.85-2.12-.85-3.55s.4-2.79,1.2-3.96c.81-1.17,1.92-2.1,3.32-2.79,1.4-.69,2.99-1.04,4.77-1.04,2.11,0,4,.47,5.67,1.39,1.68.93,2.92,2.28,3.72,4.06l-5.48,2.74c-.33-.59-.83-1.09-1.51-1.51s-1.57-.62-2.68-.62c-1.62,0-2.43.5-2.43,1.5,0,.66.36,1.14,1.08,1.42.73.28,1.67.52,2.83.71.9.14,1.85.35,2.83.62.98.27,1.91.69,2.77,1.25.87.56,1.58,1.3,2.12,2.22.55.92.82,2.11.82,3.56s-.44,2.79-1.3,3.96c-.87,1.18-2.03,2.11-3.49,2.8-1.46.68-3.08,1.03-4.86,1.03Z"/>
      <path class="cls-1" d="M85.32,26.94c-1.86,0-3.52-.43-4.99-1.28-1.47-.85-2.63-2-3.5-3.44-.86-1.44-1.29-3.02-1.29-4.75s.43-3.32,1.29-4.74c.87-1.42,2.04-2.56,3.5-3.41,1.47-.85,3.14-1.28,4.99-1.28s3.52.43,5,1.28c1.48.85,2.65,1.99,3.5,3.41s1.28,3,1.28,4.74-.43,3.31-1.28,4.75c-.85,1.44-2.02,2.58-3.5,3.44-1.48.85-3.15,1.28-5,1.28ZM85.32,20.93c1.02,0,1.84-.33,2.45-1.01.62-.68.93-1.48.93-2.41s-.31-1.76-.93-2.43c-.61-.68-1.43-1.02-2.45-1.02s-1.84.34-2.46,1.02c-.61.67-.92,1.48-.92,2.43s.31,1.73.92,2.41c.62.67,1.44,1.01,2.46,1.01Z"/>
      <path class="cls-1" d="M104.25,26.41h-6.41v-12.45h-3.02v-5.34h3.02v-.11c0-1.59.31-3.02.93-4.3.62-1.28,1.56-2.3,2.81-3.06,1.25-.76,2.85-1.14,4.77-1.14.61,0,1.22.05,1.83.16.6.1,1.13.25,1.59.44v5.8c-.43-.23-.89-.41-1.39-.53-.5-.12-.97-.19-1.42-.19-.83,0-1.49.24-1.98.7-.48.46-.72,1.12-.72,1.97v.25h5.12v5.34h-5.12v12.45Z"/>
      <path class="cls-1" d="M119.94,26.98c-1.92,0-3.51-.35-4.77-1.05-1.26-.7-2.19-1.67-2.81-2.9-.61-1.23-.92-2.63-.92-4.2v-4.87h-3.02v-5.34h3.02v-4.44h6.4v4.44h5.84v5.34h-5.84v4.66c0,.85.24,1.52.73,1.98.49.46,1.14.69,1.97.69.45,0,.98-.06,1.59-.18.6-.12,1.12-.3,1.55-.54v5.66c-.45.23-1.04.42-1.75.55-.71.13-1.37.2-1.99.2Z"/>
      <path class="cls-1" d="M129.02,26.84c-.69,0-1.33-.17-1.93-.51-.59-.34-1.06-.81-1.4-1.4-.34-.6-.51-1.24-.51-1.93s.17-1.36.51-1.94c.34-.58.81-1.05,1.4-1.39.6-.34,1.24-.51,1.93-.51s1.35.17,1.94.51c.58.34,1.05.81,1.39,1.39.34.58.51,1.22.51,1.94s-.17,1.33-.51,1.93c-.34.59-.81,1.06-1.39,1.4-.59.34-1.23.51-1.94.51Z"/>
      <path class="cls-1" d="M144.35,26.98c-2.28,0-4.27-.47-5.96-1.39-1.69-.92-2.95-2.28-3.79-4.06l5.48-2.74c.66,1.42,2.08,2.13,4.27,2.13.88,0,1.61-.13,2.19-.4.58-.28.88-.7.88-1.27,0-.71-.33-1.17-.98-1.38-.65-.22-1.52-.41-2.6-.58-.91-.14-1.87-.34-2.89-.61-1.02-.28-1.99-.69-2.9-1.25-.91-.56-1.65-1.31-2.22-2.24-.57-.94-.85-2.12-.85-3.55s.4-2.79,1.2-3.96c.81-1.17,1.92-2.1,3.32-2.79,1.4-.69,2.99-1.04,4.77-1.04,2.11,0,4,.47,5.67,1.39,1.68.93,2.92,2.28,3.72,4.06l-5.48,2.74c-.33-.59-.83-1.09-1.51-1.51s-1.57-.62-2.68-.62c-1.62,0-2.43.5-2.43,1.5,0,.66.36,1.14,1.08,1.42.73.28,1.67.52,2.83.71.9.14,1.85.35,2.83.62.98.27,1.91.69,2.77,1.25.87.56,1.58,1.3,2.12,2.22.55.92.82,2.11.82,3.56s-.44,2.79-1.3,3.96c-.87,1.18-2.03,2.11-3.49,2.8-1.46.68-3.08,1.03-4.86,1.03Z"/>
      <path class="cls-1" d="M161.47,34.59h-6.4v-17.12c0-1.83.42-3.45,1.26-4.86.84-1.41,1.99-2.52,3.47-3.33,1.47-.81,3.16-1.21,5.06-1.21s3.52.43,5,1.28c1.48.85,2.65,1.99,3.5,3.4.85,1.41,1.28,2.98,1.28,4.72,0,1.9-.39,3.56-1.17,4.98-.78,1.42-1.88,2.53-3.29,3.32-1.41.78-3.06,1.17-4.97,1.17-.66,0-1.32-.09-1.96-.27-.63-.18-1.23-.42-1.77-.72v8.65ZM164.85,20.93c1.02,0,1.84-.33,2.45-1.01.62-.68.93-1.48.93-2.41s-.31-1.75-.93-2.42c-.61-.66-1.43-1-2.45-1s-1.84.33-2.46,1c-.61.66-.92,1.47-.92,2.42s.31,1.73.92,2.41c.62.67,1.44,1.01,2.46,1.01Z"/>
      <path class="cls-1" d="M183.42,26.94c-1.73,0-3.25-.43-4.55-1.28-1.31-.85-2.33-2-3.06-3.44-.73-1.44-1.09-3.02-1.09-4.75s.43-3.32,1.29-4.74c.87-1.42,2.04-2.56,3.5-3.41,1.47-.85,3.14-1.28,4.99-1.28s3.58.41,5.05,1.23c1.47.82,2.63,1.93,3.47,3.35.85,1.41,1.27,3.03,1.27,4.86v8.93h-6.05v-1.31c-.57.59-1.25,1.05-2.05,1.37-.8.32-1.72.48-2.76.48ZM184.5,20.93c1.02,0,1.84-.33,2.45-1.01.62-.68.93-1.48.93-2.41s-.31-1.76-.93-2.43c-.61-.68-1.43-1.02-2.45-1.02s-1.84.34-2.46,1.02c-.61.67-.92,1.48-.92,2.43s.31,1.73.92,2.41c.62.67,1.44,1.01,2.46,1.01Z"/>
      <path class="cls-1" d="M204.85,26.91c-1.38.02-2.67-.22-3.86-.71-1.2-.5-2.24-1.18-3.12-2.05-.88-.87-1.56-1.88-2.06-3.03-.5-1.15-.74-2.37-.74-3.64s.25-2.5.74-3.64c.5-1.15,1.18-2.16,2.06-3.03.88-.87,1.92-1.54,3.12-2.02,1.2-.49,2.48-.72,3.86-.7,1.78.02,3.43.46,4.96,1.3,1.53.84,2.7,2.18,3.51,4.01l-5.31,2.85c-.28-.62-.7-1.13-1.25-1.53-.54-.4-1.18-.6-1.92-.6-1.02,0-1.84.33-2.46.98-.61.65-.92,1.45-.92,2.4s.31,1.76.92,2.42c.62.66,1.44,1,2.46,1,.74,0,1.37-.21,1.92-.62.55-.42.96-.92,1.25-1.51l5.31,2.85c-.81,1.82-1.98,3.16-3.51,4.01-1.53.84-3.18,1.27-4.96,1.3Z"/>
      <path class="cls-1" d="M222.99,26.91c-1.9,0-3.6-.4-5.11-1.19-1.5-.79-2.69-1.91-3.56-3.35-.86-1.44-1.29-3.13-1.29-5.08,0-1.71.39-3.27,1.18-4.7.79-1.42,1.9-2.56,3.33-3.41,1.43-.85,3.08-1.28,4.96-1.28s3.58.43,4.94,1.28c1.36.85,2.39,1.98,3.09,3.37.7,1.39,1.05,2.87,1.05,4.45v1.61h-12.39c.21.88.64,1.57,1.29,2.08.66.51,1.47.77,2.45.77.85,0,1.6-.21,2.25-.63.66-.43,1.14-.99,1.44-1.67l4.91,2.45c-.76,1.66-1.88,2.97-3.35,3.91-1.47.93-3.21,1.4-5.2,1.4ZM219.47,15.3h5.73c-.15-.5-.46-.94-.93-1.32-.48-.39-1.09-.59-1.85-.59s-1.4.19-1.9.57c-.51.38-.86.83-1.05,1.35Z"/>
    </g>
  </g>
</svg>